<?xml version="1.0" standalone="no"?>
<!DOCTYPE svg PUBLIC "-//W3C//DTD SVG 1.1//EN" "http://www.w3.org/Graphics/SVG/1.1/DTD/svg11.dtd" >
<svg xmlns="http://www.w3.org/2000/svg" xmlns:xlink="http://www.w3.org/1999/xlink" version="1.1">
<metadata>
Created by FontForge 20161013 at Sun Dec 13 16:39:38 2015
 By ,,,
Copyright (c) 2015 by Roland Hu:se. All rights reserved.
</metadata>
<defs>
<font id="SheAlwaysWalkAloneDemo" horiz-adv-x="494" >
  <font-face 
    font-family="She Always Walk Alone Demo"
    font-weight="400"
    font-stretch="normal"
    units-per-em="1000"
    panose-1="2 0 0 0 0 0 0 0 0 0"
    ascent="750"
    descent="-250"
    x-height="544"
    cap-height="1020"
    bbox="-840 -848 1633.78 1232"
    underline-thickness="50"
    underline-position="-150"
    unicode-range="U+0020-007A"
  />
<missing-glyph 
 />
    <glyph glyph-name=".notdef" 
 />
    <glyph glyph-name=".null" horiz-adv-x="0" 
 />
    <glyph glyph-name="nonmarkingreturn" 
 />
    <glyph glyph-name="space" unicode=" " 
 />
    <glyph glyph-name="space" unicode="&#xa0;" 
 />
    <glyph glyph-name="exclam" unicode="!" horiz-adv-x="506" 
d="M184 330q0 65 19.5 145.5t50 164.5t68 166.5t72.5 151.5t64 118.5t43 68.5q10 13 28 22t34.5 11t25.5 -5.5t2 -27.5q-5 -14 -19.5 -50t-35 -88t-45 -116.5t-49 -135t-48 -143t-42 -140.5t-30 -128.5t-12.5 -105.5q-1 -22 -10.5 -28.5t-23.5 -3t-30 16t-30 30t-23 37.5
t-9 40zM108 64q0 18 15.5 19t41 -5.5t58 -15t67.5 -8.5q24 0 32 -24t2 -53t-23.5 -53t-44.5 -24q-38 0 -65.5 20.5t-46 47.5t-27.5 54.5t-9 41.5z" />
    <glyph glyph-name="ampersand" unicode="&#x26;" horiz-adv-x="800" 
d="M424 696q10 35 17 74t11.5 77t7 72.5t2.5 60.5q0 16 7.5 21t19.5 0.5t25 -15t25 -25t19.5 -30.5t7.5 -31q0 -27 -5.5 -60t-11.5 -62q-8 -34 -17 -68q46 1 76 -23t45.5 -57.5t17 -69.5t-10.5 -60q35 -6 66 -32t49 -61t19.5 -73t-22.5 -68q-21 -27 -53 -53t-70 -51
t-81.5 -49t-87.5 -47q-11 -68 -13.5 -128t-2.5 -128q0 -19 -15.5 -21t-34.5 7t-34.5 28t-15.5 42q0 26 2.5 54t6.5 52q4 28 9 56q-32 -11 -63.5 -14.5t-64.5 -3.5q-15 0 -25.5 3.5t-13 9.5t4 13.5t24.5 15.5q29 12 56 25.5t50 24.5q26 13 50 26q4 9 7.5 16t11 12t20 7.5
t33.5 2.5q20 0 44.5 12t49.5 31.5t48 43.5t41.5 48.5t29.5 46.5t11 36q0 26 -30 23t-76 -24t-101.5 -54t-106.5 -65.5t-91 -59.5t-55 -36q-17 -10 -37.5 -1.5t-35.5 23.5t-19 32.5t13 25.5q49 24 101 54t101.5 63t93 67.5t76.5 68.5t52 65t19 56q0 15 -28 12t-71.5 -20
t-97.5 -45t-106.5 -61.5t-97.5 -70.5t-71 -71q-10 -14 -31 -15t-40.5 5t-31.5 18t-5 26q22 42 67.5 86.5t101.5 84.5t118 73t117 52z" />
    <glyph glyph-name="period" unicode="." horiz-adv-x="424" 
d="M108 64q0 18 15.5 19t41 -5.5t58 -15t67.5 -8.5q24 0 32 -24t2 -53t-23.5 -53t-44.5 -24q-38 0 -65.5 20.5t-46 47.5t-27.5 54.5t-9 41.5z" />
    <glyph glyph-name="zero" unicode="0" horiz-adv-x="672" 
d="M240 672q15 16 42.5 19t52.5 -1.5t38.5 -14t0.5 -19.5q-63 -56 -113.5 -123.5t-86 -136t-54 -132.5t-18.5 -113q0 -29 8.5 -40t31.5 -11q37 0 83 22.5t92.5 61t90.5 88.5t78.5 105.5t55 113t20.5 109.5q0 24 -15.5 36t-35.5 12q-17 0 -38 -7t-42 -19t-40.5 -29.5
t-34.5 -38.5q-5 -7 -12.5 -12.5t-13.5 -7.5t-10 0t-2 9q5 25 25.5 52.5t48.5 51t59 38.5t57 15q43 0 74 -21t51 -51t29.5 -62t9.5 -54q0 -56 -24.5 -114.5t-65 -113t-93 -103t-109 -84t-113.5 -56.5t-105 -21q-23 0 -48 16.5t-46 42t-34.5 55.5t-13.5 58q0 61 10.5 118
t35.5 114.5t67.5 118t106.5 129.5z" />
    <glyph glyph-name="one" unicode="1" horiz-adv-x="742" 
d="M48 332q35 17 80.5 44t95.5 61t101.5 72.5t99 78.5t88.5 79.5t70 75.5q16 16 31.5 9.5t27.5 -23.5t19 -39t5 -36q-5 -24 -23.5 -75.5t-42.5 -116.5t-50 -137t-46 -136q22 3 41 7q17 2 34.5 4.5t30.5 2.5q12 0 28 -8.5t31 -21.5t26.5 -27.5t13.5 -27.5t-7.5 -21.5
t-35.5 -8.5q-27 0 -70 -7t-93 -17.5t-102.5 -22.5t-98.5 -22.5t-81.5 -17.5t-50.5 -7q-25 0 -47.5 10t-34 22.5t-9 23.5t28.5 14q16 3 36.5 9.5t42.5 15t45 18t44 18.5q50 22 102 47q26 69 51 136q10 28 21.5 59l23 62t22.5 60t20 53q-53 -53 -104.5 -101t-99 -86.5
t-89.5 -66t-76 -40.5q-11 -6 -27 -3.5t-32.5 10t-31 18t-22 21.5t-5 21.5t18.5 16.5z" />
    <glyph glyph-name="two" unicode="2" horiz-adv-x="626" 
d="M60 459q16 43 48.5 88t74.5 82t90.5 60t96.5 23q28 0 56 -16.5t50 -40t35.5 -49.5t13.5 -45q0 -15 -6.5 -40.5t-19 -58t-30.5 -69.5t-42.5 -74t-54 -72t-64.5 -63q19 12 44 23t53 19.5t57.5 13t57.5 3.5q16 -1 35 -18t30.5 -37.5t10 -37t-25.5 -16.5q-81 0 -182 -31.5
t-216 -94.5q-12 -10 -29 -10t-34 6t-32.5 16.5t-25 21.5t-10 20.5t11.5 14.5q41 23 89.5 67t95 98.5t87.5 113.5t67 111.5t33 93t-14 57.5q-15 15 -52.5 2.5t-81.5 -45t-85.5 -81t-62.5 -105.5q-6 -18 -20.5 -15.5t-28 16t-21 33t0.5 36.5z" />
    <glyph glyph-name="three" unicode="3" horiz-adv-x="689" 
d="M116 490q9 -11 0 -15.5t-28 -0.5q-30 6 -50 27t-20 39q0 33 25.5 67.5t65 62.5t87.5 46t94 18q55 0 88 -27.5t46 -66.5t6.5 -80t-28.5 -68q52 23 100 21.5t85 -18.5t58.5 -45t21.5 -56q0 -40 -23 -87.5t-61.5 -96.5t-88 -95t-102.5 -82t-105.5 -57.5t-96.5 -21.5
q-27 0 -56 9t-52.5 24t-36 34.5t-5.5 40.5q10 24 28.5 47t38.5 42t38.5 32.5t28.5 17.5q10 5 27 -3t30 -21.5t16 -28t-16 -23.5t-38 -25.5t-32.5 -32t-19.5 -27t2 -11.5q23 -3 55.5 10.5t70 38.5t77 58.5t77 70.5t70 73.5t55 67.5t33 53.5t3.5 31.5q-12 11 -36.5 8.5
t-56 -14t-66.5 -29t-67.5 -37t-59 -38.5t-40.5 -32q-10 -9 -30 -2t-36.5 20.5t-22.5 29t12 24.5q26 15 53.5 39.5t52 53t43.5 59.5t28 59.5t6 52t-22 37.5q-11 7 -33 4.5t-47.5 -12.5t-52.5 -25.5t-49.5 -32.5t-36.5 -35t-14 -33q0 -18 3 -28z" />
    <glyph glyph-name="four" unicode="4" horiz-adv-x="682" 
d="M369 685q7 11 14 13.5t13.5 0t12.5 -7t11 -6.5q7 59 10.5 100.5t6.5 79.5q3 19 22 15.5t41.5 -19.5t40.5 -40.5t18 -47.5q0 -17 -7.5 -55t-19.5 -90.5t-26.5 -114.5t-28.5 -127q38 18 70 30.5t52 16.5q18 3 35.5 -4t32 -19t25 -26.5t16 -27.5t4 -21.5t-11.5 -8.5
q-48 0 -114 -21.5t-137 -53.5q-13 -68 -21 -127t-8 -101q0 -20 -14 -21.5t-30.5 8.5t-30.5 28t-14 36q0 29 3 60.5t8 65.5q-38 -19 -73 -37.5t-65 -34t-53 -27.5t-38 -18q-20 -9 -50 -5.5t-55 14t-37.5 26.5t1.5 34q62 68 115.5 135t101.5 133.5t92 132.5zM385 484
q-13 -18 -35 -44.5t-48 -56.5t-53 -61t-50.5 -58t-40 -46.5t-21.5 -26.5q48 32 107 67.5t119 67.5q8 43 14 83t8 75z" />
    <glyph glyph-name="five" unicode="5" horiz-adv-x="666" 
d="M188 212q18 7 34.5 0.5t27.5 -19t15 -26.5t-3 -21q-10 -7 -22.5 -20t-22 -26.5t-13.5 -26.5t4 -20q5 -5 22.5 8t43 38t56.5 59t61 70.5t57.5 73.5t47 68t28.5 53t2 29q-8 10 -36.5 4.5t-67 -20t-82.5 -35t-82.5 -41t-67 -38t-35.5 -26.5q-13 -15 -32.5 -13t-37.5 13.5
t-31 29t-14 32.5q-2 23 0.5 61.5t7 78t11.5 74t15 50.5q10 18 29.5 29.5t49.5 22.5t72 23.5t96.5 31.5t123 48.5t152.5 73.5q19 10 43.5 -1t41.5 -30t20.5 -38.5t-18.5 -25.5q-12 -8 -40 -21t-66 -28t-82.5 -31.5t-88.5 -32.5q-105 -38 -229 -79l-40 -129q29 22 66.5 44
t77.5 39.5t79 28.5t70 11t66 -13.5t64 -35t48.5 -49.5t19.5 -56q0 -39 -22 -85.5t-58 -94t-82.5 -92.5t-96.5 -79.5t-99 -55.5t-89 -21q-19 0 -39 10.5t-36 25.5t-24.5 32.5t-4.5 31.5q5 21 16 42t26 39t32.5 32.5t35.5 22.5z" />
    <glyph glyph-name="six" unicode="6" horiz-adv-x="598" 
d="M660 786q23 5 43 -9t32 -33.5t14.5 -38t-9.5 -22.5q-86 -31 -160.5 -72.5t-136.5 -89.5t-112 -100.5t-87 -103.5q39 14 83 18.5t89 4.5q38 0 67 -25t46 -59.5t20.5 -71t-9.5 -58.5q-15 -26 -46.5 -55.5t-74.5 -54t-93.5 -40.5t-104.5 -16q-31 0 -64 13.5t-60 37.5
t-44 56.5t-17 71.5q0 26 11.5 69.5t39 98t74 117t115.5 126t164 124t220 112.5zM145 82q0 -21 22.5 -22t56 10.5t73 33.5t73 47t56 51t22.5 46q0 7 -14 6t-36 -8t-48 -18.5t-51 -24.5q-10 -5 -23.5 -2t-26.5 11.5t-25 21t-19 24.5q-29 -51 -44.5 -96t-15.5 -80z" />
    <glyph glyph-name="seven" unicode="7" horiz-adv-x="656" 
d="M232 330q24 0 58 -3t72 -8q17 44 37.5 91t44 92t49 85.5t52.5 73.5q-51 3 -110 -13t-116.5 -43t-109 -60.5t-88 -66t-52.5 -60.5t-3 -42q11 -10 4.5 -16t-23.5 -6q-9 0 -20.5 7t-21 19t-16.5 28.5t-7 35.5q0 20 18 51t52 66t84 70.5t114 64t141.5 46.5t166.5 18
q28 0 51.5 -21.5t37.5 -50t16.5 -57t-12.5 -43.5q-9 -11 -28 -38t-43.5 -65.5t-52.5 -85.5t-54 -96l18 -3q28 -5 48 -21.5t29 -33t5.5 -28t-22.5 -7.5q-29 6 -59.5 6t-62.5 -2q-25 -56 -40.5 -106.5t-15.5 -88.5q0 -15 -11.5 -13.5t-25 14.5t-25 34.5t-11.5 45.5
q0 15 6 43.5t17 65.5q-10 0 -15 1q-21 0 -43 18.5t-35.5 41t-15 41.5t17.5 19z" />
    <glyph glyph-name="eight" unicode="8" horiz-adv-x="706" 
d="M176 634q0 29 35 53t85.5 40.5t106.5 25.5t98 9q57 0 94 -20t57 -45.5t23.5 -48.5t-6.5 -30q-6 -4 -12 6.5t-18.5 24t-33.5 25.5t-55 12q-11 0 -33 -3.5t-49 -10t-55.5 -15.5t-51.5 -20t-38 -23.5t-15 -26.5t20.5 -30.5t52.5 -36.5q58 28 110 46t89 26q19 3 29 -5.5
t13 -23t0.5 -32t-9 -34t-15 -28t-16.5 -13.5q-12 -3 -27.5 -8t-32.5 -11q31 -20 60 -42t51 -45.5t35.5 -48.5t13.5 -51q0 -39 -22 -76.5t-60 -71t-88 -61.5t-105.5 -48t-113 -31.5t-110.5 -11.5q-41 0 -71 20.5t-50 51t-30 65.5t-10 63q0 48 23 94t61.5 87.5t88.5 78.5
t104 67q-26 13 -48 28t-39 33.5t-26.5 42t-9.5 53.5zM70 114q0 -33 13.5 -54t33 -33t41 -16.5t37.5 -4.5q26 0 62.5 14.5t76 38t78.5 54t69.5 62t49.5 62.5t19 56q0 41 -28 68t-69 48q-40 -18 -84 -40t-86.5 -47t-81 -51.5t-68 -53.5t-46.5 -53.5t-17 -49.5z" />
    <glyph glyph-name="nine" unicode="9" horiz-adv-x="716" 
d="M545 718q8 -5 9.5 -13.5t-2 -19.5t-11 -23t-17.5 -24q29 22 47.5 42.5t23.5 37.5q5 19 19.5 21t30.5 -16.5t28 -58.5t12 -105q0 -97 -19 -180.5t-49 -151.5t-67.5 -120t-74.5 -87.5t-69.5 -54t-53.5 -18.5q-31 0 -66 14t-64 35.5t-48.5 47.5t-19.5 50t5.5 51t16 53.5
t24 50.5t30.5 41q17 19 37 11t34.5 -27.5t19.5 -42.5t-8 -34q-11 -13 -23 -33.5t-19.5 -42.5t-9 -43.5t7.5 -35.5q18 -16 45 -7.5t57.5 36.5t62 75t58 110t45 139.5t23.5 163.5q-50 -42 -105.5 -81t-108 -69t-98 -48.5t-75.5 -18.5q-27 -3 -55.5 13.5t-52 41.5t-38.5 53.5
t-15 49.5q0 41 34 76.5t87 64t116.5 48t123 30t106.5 10.5t66 -11zM123 483q0 -17 30.5 -14.5t77.5 18t103 42t108 56.5q-48 6 -104 -2t-103.5 -24t-79.5 -36.5t-32 -39.5z" />
    <glyph glyph-name="question" unicode="?" horiz-adv-x="832" 
d="M176 64q0 18 15.5 19t41 -5.5t58 -15t67.5 -8.5q24 0 32 -24t2 -53t-23.5 -53t-44.5 -24q-38 0 -65.5 20.5t-46 47.5t-27.5 54.5t-9 41.5zM133 452q8 -19 7.5 -34t-12.5 -15t-26 8t-26 24.5t-20 41.5t-8 60q0 27 29 69t77.5 89t112 95t132 86t137.5 62t128 24
q73 0 113.5 -25.5t60 -64t24 -82t4.5 -79.5q0 -33 -35.5 -74t-88.5 -83.5t-115 -84.5t-115 -78t-88.5 -63.5t-35.5 -40.5q0 -26 12.5 -40.5t25.5 -30.5q4 -7 -7 -11t-30.5 -3.5t-43.5 5.5t-45 15t-35 26.5t-14 38.5q0 18 23.5 46t62 62.5t88 73t101 78.5t101 79.5t88 74.5
t62 64.5t23.5 49.5q0 16 -3 28t-12 19.5t-26 11t-44 3.5q-25 0 -65.5 -13t-89 -35.5t-102 -53t-104.5 -64.5t-95.5 -70t-75.5 -70t-45.5 -65t-4.5 -54z" />
    <glyph glyph-name="at" unicode="@" horiz-adv-x="878" 
d="M646 350q5 -15 -6.5 -17t-27.5 4.5t-31 20t-18 30.5q-8 39 -25.5 53t-36.5 14q-22 0 -47 -15.5t-49 -39t-45.5 -51.5t-37 -53.5t-22 -44.5t-0.5 -25q11 -11 28.5 -7.5t38.5 20.5t42.5 46.5t39.5 71.5q7 15 20 14.5t26.5 -11t23.5 -27t10 -32.5q0 -60 10 -87t24 -27t43 21
t58.5 59t51.5 90t22 114q0 67 -54 98t-142 31q-42 0 -89.5 -19t-94.5 -52.5t-90 -80t-76 -101t-52.5 -115t-19.5 -122.5q0 -14 3 -27t11.5 -23.5t23 -17t38.5 -6.5q47 0 99.5 21t97.5 51q16 11 39 5.5t42 -18.5t28.5 -29t-2.5 -26q-18 -17 -44.5 -32t-57.5 -26.5t-64 -18.5
t-65 -7t-74 15t-79.5 42t-63.5 65t-26 84q0 42 15.5 96t44.5 109.5t72 109t97.5 95t120.5 67t142 25.5q78 0 137 -23.5t98.5 -60.5t59.5 -81t20 -85q0 -27 -11 -61t-28.5 -69t-41 -68.5t-48 -60t-49.5 -42.5t-46 -16t-43 8.5t-42 22t-36 30.5t-26 35q-38 -32 -63.5 -44.5
t-55.5 -12.5q-15 0 -36 10.5t-39.5 27.5t-32 39.5t-13.5 46.5q0 32 22.5 76.5t59.5 84.5t84 68t95 28q36 0 64.5 -15.5t49.5 -40t33.5 -54t15.5 -57.5z" />
    <glyph glyph-name="A" unicode="A" horiz-adv-x="1163" 
d="M486 508q15 10 32 27.5t31.5 38.5t24 43t9.5 39.5t-11.5 29t-39.5 11.5q-31 0 -75.5 -21t-93 -59t-96 -91t-85.5 -118t-61.5 -139t-23.5 -154q0 -54 24 -78t80 -24q41 0 85.5 17.5t91 49t94 74.5t95.5 95q-8 -2 -16.5 -3t-17.5 -3q-14 -2 -16.5 13t3.5 34.5t20 36
t34 16.5h36t37 -2q71 87 137 183.5t120.5 189t95.5 174t62 140.5q6 27 26.5 26t42 -17t35.5 -40.5t7 -45.5q-12 -38 -25 -93.5t-26.5 -122t-25.5 -141t-21 -150.5t-14.5 -151t-5.5 -141q0 -29 -5.5 -39.5t-16 -8.5t-25.5 14t-34 28t-39 32.5t-44.5 30.5t-55 25.5t-70.5 17.5
q-21 3 -38 5t-31 3q-60 -68 -123.5 -127t-127 -102.5t-125 -69t-117.5 -25.5q-33 0 -69 20t-65.5 50.5t-49 66.5t-19.5 69q0 82 24.5 159.5t65.5 145.5t95 124.5t113.5 97t120 63t115.5 22.5q24 0 47.5 -10.5t41.5 -28.5t29.5 -42t11.5 -52q0 -23 -15 -54t-36 -61.5
t-44 -56.5t-39 -38t-29.5 -1t-21 30t-7 39.5t13.5 28.5zM957 230q0 22 2 69t5.5 107.5t10 129.5t15.5 134q-45 -80 -105.5 -169t-132.5 -177q60 -14 112 -38t93 -56z" />
    <glyph glyph-name="B" unicode="B" horiz-adv-x="1158" 
d="M258 584q23 0 25 -16.5t-7.5 -36t-26.5 -36t-31 -16.5q-41 0 -74.5 21t-57 56.5t-36 82t-12.5 97.5q0 46 36.5 98.5t107 97.5t172 74.5t232.5 29.5q62 0 125 -13t113.5 -40t82 -68.5t31.5 -98.5q0 -35 -18.5 -66t-40.5 -54q-26 -27 -58 -51q67 13 129.5 0t111 -42.5
t77.5 -71.5t29 -87q0 -49 -23.5 -107t-68.5 -116.5t-111 -113t-151.5 -96.5t-189 -67.5t-224.5 -25.5q-78 0 -146 12t-121.5 30t-91 39.5t-54.5 40.5q-17 20 -9 22.5t25 -8.5q32 -20 68.5 -35t79 -25t93 -15t111.5 -5q97 0 187 27.5t168.5 71.5t143.5 98.5t111 110
t71.5 105.5t25.5 84q0 50 -22 74t-83 24q-32 0 -76 -9.5t-90.5 -26t-90.5 -38.5t-75 -46q-13 -26 -26.5 -56.5t-24 -66.5t-17.5 -78.5t-7 -92.5q-1 -16 -12 -17.5t-24 9.5t-23.5 33.5t-10.5 53.5q0 77 16.5 160t37 164t40 155.5t25.5 135.5q2 17 11 23.5t21 5t26 -9
t25.5 -19t18.5 -24.5t7 -25q-1 -23 -10.5 -60.5t-20.5 -73.5q-13 -42 -30 -89q40 22 73.5 51t57.5 61.5t37 65.5t13 63q0 43 -17 75t-47 54t-69.5 33t-84.5 11q-53 0 -110.5 -13.5t-113 -37t-106 -54.5t-89 -65t-61 -69.5t-22.5 -67.5q0 -17 11.5 -34.5t32 -32t47.5 -24
t59 -9.5z" />
    <glyph glyph-name="C" unicode="C" horiz-adv-x="880" 
d="M739 679q-43 3 -70 26t-38.5 48.5t-9 45.5t19.5 17q36 -6 77.5 -13.5t99.5 -5.5q62 2 113 25t87 54.5t55 64.5t18 56q-1 14 -11.5 23t-30.5 9q-50 0 -116 -20t-140.5 -56.5t-153 -87.5t-153 -113t-141 -133.5t-116 -148.5t-78.5 -158t-29 -162q0 -54 18 -77t45 -23
q48 0 102 18.5t109 50t110 72t105 84.5q13 13 32 15t38 -3t36 -16t27.5 -24t12.5 -26t-10 -23q-40 -30 -97 -71.5t-125.5 -79t-144.5 -63.5t-155 -26q-33 0 -66 14.5t-59.5 40t-43.5 60t-17 74.5q0 93 31.5 183.5t84.5 175.5t123.5 162t148 143.5t157.5 120.5t153.5 92.5
t134.5 59t101 20.5q46 0 86 -15t69.5 -37.5t46 -50t16.5 -52.5q0 -31 -20.5 -63.5t-55.5 -64t-80.5 -59t-96 -47.5t-102 -30t-97.5 -6z" />
    <glyph glyph-name="D" unicode="D" horiz-adv-x="1086" 
d="M576 1056q-1 20 15.5 17.5t36.5 -18.5t37.5 -39t18.5 -44q98 -14 170 -58t119.5 -107t70.5 -138.5t23 -151.5q0 -73 -38 -142t-101.5 -130.5t-145 -112t-168.5 -86.5t-173 -55.5t-157 -16.5q-27 1 -48.5 24.5t-33 51.5t-10 49.5t20.5 18.5q113 -22 214 -8t185.5 52
t152 93t115 117t72.5 123.5t25 112.5q0 46 -13 91t-48 82.5t-96.5 64t-159.5 34.5q-14 -41 -33 -93.5t-40.5 -111t-42.5 -118.5t-38.5 -116t-30 -104.5t-15.5 -83.5q-2 -21 -16 -18.5t-29 20t-26 44t-7 52.5q6 39 23 102t39 136.5t45 150t43 142.5q-92 -7 -177.5 -36.5
t-162 -72.5t-142.5 -94.5t-118.5 -101t-90 -92t-57.5 -68.5q-12 -16 -27.5 -4.5t-24.5 38t-6 61t29 65.5q175 193 377 292t427 108q8 26 11.5 46.5t5.5 32.5z" />
    <glyph glyph-name="E" unicode="E" horiz-adv-x="969" 
d="M1022 740q-19 64 -77 64q-26 0 -40.5 -14.5t-20 -37t-4 -50t6.5 -52.5q2 -10 6 -25t5 -26.5t-4.5 -16t-21.5 7.5q-17 11 -36 21.5t-43 18t-55 12t-71 4.5q-75 0 -147 -22.5t-136.5 -60.5t-119.5 -87t-94.5 -101t-62 -104t-22.5 -95q0 -72 60.5 -113t175.5 -41
q66 0 128.5 14t114 35t88.5 45t51.5 45t2.5 35t-57 14q-20 0 -29.5 4t-11.5 9.5t3 12t14 12.5q19 11 35.5 18.5t34.5 11.5t38.5 5.5t47.5 1.5q60 0 90 -17.5t30 -47.5q0 -43 -27 -83t-72 -74.5t-103.5 -63t-120.5 -49t-124 -31.5t-113 -11q-70 0 -129 20t-102.5 59t-68 98
t-24.5 137q0 87 36 166.5t96.5 146t140 117t168 79t179.5 32.5t174 -23q-23 23 -24 54t14 59.5t43 48.5t65 20q31 0 52 -7t36 -20.5t25.5 -33.5t18.5 -45q8 -24 8 -45.5t-4 -34t-10.5 -13t-12.5 16.5z" />
    <glyph glyph-name="F" unicode="F" horiz-adv-x="1280" 
d="M516 340q36 -5 91.5 -0.5t119.5 13.5t131 19t125 15q26 49 55 99t57.5 97t55 89t47.5 74.5t35.5 54t18.5 27.5q11 16 11 25.5t-20 11.5q-170 10 -328 -4t-296 -43t-252 -66.5t-195.5 -74.5t-126.5 -67t-45 -44q0 -12 25 -17t67 -3.5t96 7.5t112 17q14 3 14.5 -14t-10 -39
t-31.5 -42t-49 -23q-20 -2 -51 -1.5t-66 4.5t-70.5 13t-64 23.5t-46.5 36t-18 51.5q0 29 52 72.5t145 90t222.5 91.5t284.5 78.5t330 50t360 6.5q27 -2 44 -22.5t24.5 -48t6 -55t-10.5 -42.5q-15 -23 -41 -62t-59.5 -92t-71.5 -120t-76 -145q25 -8 43 -24.5t27 -32.5
t7 -26.5t-18 -7.5q-20 4 -45 4t-55 -2q-28 -64 -53.5 -132.5t-45.5 -143.5q-5 -20 -22.5 -17.5t-35.5 19.5t-31.5 46.5t-10.5 64.5q4 28 16.5 64.5t32.5 79.5q-44 -7 -89 -14t-86.5 -13t-78.5 -10t-66 -4q-19 0 -36.5 8.5t-32 21t-24.5 27t-13.5 26.5t0 19.5t15.5 5.5z" />
    <glyph glyph-name="G" unicode="G" horiz-adv-x="1055" 
d="M823 770q19 10 30.5 20.5t17 19.5t7 16t1.5 12q0 9 -11 16.5t-28 7.5q-29 0 -75.5 -18t-102.5 -50t-118.5 -75t-123 -93t-115.5 -103.5t-97 -107t-66.5 -104.5t-24.5 -94q0 -31 28 -52t70 -21q43 0 99.5 12.5t119.5 33.5t130 49t130.5 59t121 63t101.5 62q22 15 39.5 -4
t27 -54t8 -78.5t-18.5 -78.5q-34 -69 -74 -131t-86 -118q62 -9 108.5 -20.5t81.5 -22.5q17 -6 29.5 -13t16.5 -12t-1.5 -7.5t-24.5 2.5q-61 15 -119 25t-118 16q-78 -89 -165 -159t-175.5 -118.5t-174.5 -74t-160 -25.5q-35 0 -68.5 5t-60 19t-43 39t-16.5 65q0 52 43.5 105
t124.5 96t196 70t258 27q61 0 117 -3q66 81 112.5 155t69.5 124q-34 -23 -78.5 -46t-96 -44t-106.5 -39.5t-109 -32t-105 -21t-94 -7.5q-49 0 -89.5 12.5t-69 37.5t-44 62t-15.5 86q0 53 24.5 111.5t66.5 117.5t97 117t116.5 110t125.5 97t123.5 77.5t109.5 51t85 18.5
q36 0 70 -12t60 -32.5t42 -47.5t16 -58q0 -39 -25.5 -82t-90.5 -90q-12 -9 -22 -4t-17 18t-11 31t-3.5 35.5t5 31.5t14.5 20zM543 -62q-117 0 -210.5 -33t-159.5 -79t-101 -95t-35 -82q0 -32 14 -42t50 -10q70 0 140.5 29t139 76.5t132 108.5t118.5 126q-21 1 -43 1h-45z
" />
    <glyph glyph-name="H" unicode="H" horiz-adv-x="1539" 
d="M967 968q5 27 23.5 28.5t38 -12t33.5 -37t9 -47.5q-7 -36 -22 -84.5t-34.5 -105t-42 -119t-46.5 -126.5q95 -78 171.5 -167.5t132.5 -174.5q27 119 60.5 239.5t71 234t78.5 216t83 186.5q7 14 19 15t26 -6.5t27 -21.5t23 -29.5t14 -31t-1 -25.5q-31 -67 -69.5 -149.5
t-80.5 -189t-84 -239.5t-81 -300q-13 -54 -32 -56t-49 35q-11 13 -38 55.5t-68 101t-96.5 126t-124.5 131.5q-24 -64 -46.5 -125.5t-40 -114.5t-29.5 -95.5t-15 -69.5q-2 -17 -13.5 -19.5t-25 3.5t-24.5 19.5t-11 30.5q0 33 9.5 81t25.5 106.5t37 124t44 134.5
q-47 36 -98.5 66t-107 52.5t-116 35t-124.5 12.5q-85 0 -150 -23t-109 -62t-66.5 -89t-22.5 -104q0 -58 22 -107t58 -88.5t82.5 -69t96.5 -48.5q16 -6 18 -11t-5 -7t-20 -1.5t-26 5.5q-52 18 -107 46.5t-100 71t-74 102.5t-29 143q0 70 29.5 123.5t84 89.5t132.5 54.5
t176 18.5q128 0 246.5 -45.5t224.5 -118.5q41 121 77.5 234t55.5 198z" />
    <glyph glyph-name="I" unicode="I" horiz-adv-x="750" 
d="M176 566q17 0 25 -7t-3 -11q-27 -9 -53 -6t-46 14.5t-32.5 29t-12.5 38.5q0 47 23.5 94.5t63 91.5t92 82.5t110 66.5t117 44.5t114.5 16.5q57 0 99.5 -27.5t70.5 -67t42 -83.5t14 -76q0 -85 -33 -179t-84.5 -185.5t-114.5 -174t-122 -145.5t-107 -100.5t-70 -37.5
q-28 0 -49.5 12.5t-32 28.5t-8.5 30.5t21 18.5q52 30 109 80t112 114t104 138t86 152.5t59 157.5t22 153q0 50 -21 81.5t-71 31.5q-36 0 -84.5 -15.5t-100 -41.5t-101.5 -60.5t-89.5 -72.5t-64 -77t-24.5 -75q0 -34 40 -34z" />
    <glyph glyph-name="J" unicode="J" horiz-adv-x="876" 
d="M92 390q21 -34 -13 -31q-16 1 -32.5 8.5t-29.5 19.5t-21 28t-6 35q3 33 27.5 77.5t64.5 95.5t91.5 104.5t107.5 104.5t113 96.5t108 79.5t92 54t66 20q40 0 76.5 -33t64 -84.5t43.5 -114.5t16 -124q0 -102 -18.5 -202t-51 -195t-76 -184t-93.5 -169q81 -20 171 -51
q10 -3 22 -10.5t17 -13t-0.5 -7.5t-30.5 6q-106 32 -197 47q-68 -106 -140.5 -193.5t-138.5 -150t-119 -97t-81 -34.5q-38 0 -77.5 15t-72 42t-53.5 64.5t-21 82.5q0 73 37.5 140t112 114.5t186 67.5t259.5 1q55 85 104.5 178t87 188.5t59.5 190t22 182.5q0 67 -6 111.5
t-16 71.5t-22 38t-24 11q-20 0 -57.5 -20.5t-86 -55.5t-103.5 -80.5t-108.5 -95t-102.5 -99.5t-84 -94.5t-53.5 -80t-12.5 -54.5zM-16 -352q0 -18 5 -36t14.5 -32t24 -23t32.5 -9q27 0 71.5 31t100 86.5t117 131.5t121.5 165q-114 6 -204.5 -14t-153 -61t-95.5 -102
t-33 -137z" />
    <glyph glyph-name="K" unicode="K" horiz-adv-x="820" 
d="M-136 460q-18 -14 -44.5 -13t-48 11t-32.5 25t2 30q14 16 47.5 47.5t80 71.5t102.5 86t114.5 91t116.5 87t109 74t90.5 51t62.5 19q20 0 42 -9.5t39.5 -25t27.5 -36t7 -41.5q-1 -17 -14 -55.5t-33.5 -92t-47 -119t-54.5 -136.5q67 73 141.5 146t152 139.5t155.5 124
t152.5 99.5t142.5 66t125 24q49 0 90 -18t70.5 -42.5t45.5 -49.5t16 -39t-4 -30t-11 -30t-16.5 -23.5t-21.5 -9.5q-11 0 -25.5 11.5t-26 27t-17.5 32t0 27.5q12 20 12.5 36t-6.5 26.5t-20.5 16t-29.5 5.5q-46 0 -107.5 -25.5t-131.5 -68.5t-145.5 -99.5t-149.5 -117.5
t-144 -123.5t-128.5 -117.5t-102.5 -99t-67 -69q7 -63 29.5 -132t59 -126.5t88 -95t116.5 -37.5q40 0 72 2.5t59.5 8.5t51.5 15.5t49 23.5t33 13.5t5.5 -8.5t-14 -20t-25.5 -20t-39.5 -24.5t-60 -33t-77.5 -29.5t-91 -13q-63 0 -114 27t-90 76.5t-66.5 118t-45.5 152.5
q-36 -100 -60 -181.5t-24 -128.5q0 -22 -15 -23.5t-32.5 10.5t-32.5 33.5t-15 47.5q0 13 11 50.5t29.5 92.5t43 123.5t51.5 143.5t55 151.5t53 148t45 134t33 108.5q-34 -11 -79.5 -40.5t-97.5 -71t-108 -91t-111.5 -100.5t-107 -100t-94.5 -89z" />
    <glyph glyph-name="L" unicode="L" horiz-adv-x="833" 
d="M886 1232q30 0 53.5 -12.5t40 -34t25.5 -50t9 -59.5q0 -40 -22 -86t-55.5 -90.5t-74 -83t-76.5 -62.5q-12 -8 -19.5 5.5t-9.5 35t2 44t16 31.5q27 19 59.5 53.5t61.5 72t48.5 72.5t19.5 56q0 39 -15.5 56.5t-48.5 17.5q-32 0 -64.5 -35t-65 -95t-66.5 -140t-69.5 -169
t-73.5 -183t-79.5 -182t-86.5 -164.5t-95 -132.5q34 -17 68 -42t70.5 -53t77 -56t88.5 -50t104.5 -36t124.5 -14q58 0 102.5 9t79.5 24t62 34t50 38q14 12 19.5 12.5t4.5 -5t-5.5 -13.5t-9.5 -13q-11 -11 -36 -31.5t-62.5 -41t-87.5 -36t-110 -15.5q-117 0 -210.5 27
t-167 64t-129 75.5t-97.5 62.5q-17 -12 -34 -21.5t-34 -15.5q-13 -7 -39 -1.5t-49.5 17.5t-36.5 26.5t1 24.5q16 11 38.5 21.5t48.5 18.5q59 29 109 93t94.5 148.5t85 182.5t80 196.5t81 189.5t88 161t100 112t117.5 42z" />
    <glyph glyph-name="M" unicode="M" horiz-adv-x="1226" 
d="M2 670q-5 -18 -14 -22t-20 0.5t-23 15.5t-21.5 24.5t-16.5 27t-7 23.5q-1 24 18 60.5t52 76.5t76.5 80t91 71.5t95.5 51.5t90 20q46 0 84.5 -25.5t66.5 -68.5t43.5 -101t15.5 -122q0 -107 -15.5 -193.5t-29.5 -160.5q57 120 115 218t114 167.5t107.5 107t94.5 37.5
q30 0 47 -16t24.5 -42t7.5 -59.5t-5 -69t-13 -70t-16 -62.5t-14.5 -47t-7.5 -23q34 53 80.5 105t93.5 93t87.5 66t63.5 25q17 0 29 -18t18.5 -43t7.5 -52t-5 -45t-22 -55t-37 -87t-45.5 -109.5t-47 -123t-40 -128.5t-26 -125.5t-5 -114t24.5 -93.5q12 -24 -0.5 -31t-44.5 23
q-43 40 -58 100.5t-11 132t23 149t45.5 151t56 139t54.5 112.5q-68 -43 -132.5 -100t-120 -136.5t-100.5 -187t-75 -250.5q-5 -24 -21.5 -21.5t-33.5 19t-29.5 38.5t-10.5 37q5 36 19.5 88t33.5 112t41.5 125t43.5 127.5t39 118.5t28.5 98t11.5 67t-12 25q-26 0 -64.5 -33.5
t-82 -90.5t-88.5 -133t-83.5 -161t-67 -174.5t-38.5 -173.5q-3 -24 -22.5 -25t-41.5 13.5t-40 39.5t-18 52q0 24 10.5 73.5t25.5 115.5t32.5 142t31.5 151.5t21.5 145.5t3.5 124t-22.5 86t-56.5 32q-70 0 -128.5 -32t-105 -79t-79.5 -102t-51 -101z" />
    <glyph glyph-name="N" unicode="N" horiz-adv-x="750" 
d="M-230 375q0 -5 -16 -6t-36 5t-38 19.5t-22 38.5q-4 24 12 73t47.5 108.5t77 122.5t101 114.5t120.5 84.5t134 33q67 0 108.5 -34t62.5 -83.5t24.5 -104t-5.5 -95.5q70 104 125 170.5t98.5 105t79.5 53t69 14.5q26 0 52 -16t46.5 -40.5t33 -54t12.5 -55.5
q0 -68 -19.5 -151t-49 -171.5t-64 -177t-64 -166.5t-49 -141t-19.5 -99q0 -30 17 -45.5t50 -10.5q9 1 12.5 -1t3 -5t-5 -7t-11.5 -5q-23 -5 -51 -2.5t-53.5 13.5t-42.5 32t-17 55q0 55 20.5 128.5t51 157.5t66 173t66 175t51 164t20.5 140q0 17 -6 30.5t-24 13.5
q-26 0 -67 -31.5t-90 -84.5t-103 -123t-106.5 -146.5t-100 -155t-83.5 -149t-57 -128t-21 -92.5q0 -14 -14.5 -13t-32.5 11.5t-32.5 28t-14.5 37.5q0 39 19.5 90.5t48.5 111t63 123.5t63 127.5t48.5 125t19.5 114.5q0 70 -27 105t-63 35q-56 0 -110 -33t-103 -83.5
t-90.5 -110.5t-72.5 -115t-48 -97t-17 -55q0 -14 3.5 -20.5t8 -10t8 -6t3.5 -8.5z" />
    <glyph glyph-name="O" unicode="O" horiz-adv-x="894" 
d="M447 1000q16 15 45.5 18t54.5 -2.5t37 -17t-8 -25.5q-60 -43 -114.5 -106.5t-101 -137.5t-84.5 -153.5t-65 -155t-41.5 -142.5t-14.5 -115q0 -22 3.5 -41t11.5 -33.5t20.5 -23t29.5 -8.5q56 0 125 41.5t140.5 110t139 157t120.5 183t85 187.5t32 170q0 35 -17 53t-58 18
q-17 0 -42 -15t-52.5 -39t-54.5 -53.5t-48 -58.5t-33.5 -54.5t-9.5 -40.5q3 -23 20.5 -31t40.5 -4t48 17t43 33q18 19 25 14.5t1.5 -22t-23 -41.5t-47.5 -43q-28 -16 -58 -26.5t-56 -9t-45 19.5t-25 59q-4 25 8.5 63.5t35.5 82t54.5 86.5t65 78t66 57t58.5 22q48 0 86 -27.5
t65 -66.5t41.5 -82.5t14.5 -76.5q0 -83 -32.5 -178t-87.5 -188.5t-126.5 -179.5t-150.5 -152t-159.5 -105t-152.5 -39q-34 0 -66.5 14t-58 38.5t-41 57t-15.5 68.5q0 92 24 204t70.5 226t116 222t160.5 194z" />
    <glyph glyph-name="P" unicode="P" horiz-adv-x="557" 
d="M350 871q15 28 33 20.5t32.5 -31.5t21 -53t-2.5 -44q-32 -54 -68.5 -129t-70.5 -156q73 22 132 61.5t100.5 94t64 122t22.5 145.5q0 34 -15.5 61.5t-42.5 47t-62.5 30t-75.5 10.5q-120 0 -220.5 -28t-186 -76.5t-158 -113.5t-135.5 -138q-16 -19 -44 -23t-52 2.5
t-35.5 20.5t5.5 31q86 78 172.5 147.5t180 122t198 83t225.5 30.5q80 0 144.5 -26.5t110.5 -67.5t70.5 -91.5t24.5 -98.5q0 -87 -36 -154.5t-96 -115t-138 -76.5t-162 -39q-3 -1 -7 -1q-28 -69 -50 -132.5t-33.5 -109.5t-10 -69.5t19.5 -11.5q21 10 28.5 5.5t5.5 -18
t-11.5 -31.5t-22.5 -35t-27.5 -29t-26.5 -13q-23 -2 -39.5 16.5t-16.5 63.5q0 53 11 118t30 135.5t44 144t53.5 144.5t58.5 136t58 119z" />
    <glyph glyph-name="Q" unicode="Q" horiz-adv-x="898" 
d="M548 446q0 22 19 25.5t42 -5t42 -25t19 -33.5q1 -17 1.5 -32t2.5 -31q47 72 88 147t72 145.5t48.5 132.5t17.5 108q0 28 -6 54t-17.5 45t-27.5 30.5t-36 11.5q-64 0 -129.5 -36.5t-126 -94t-113.5 -130t-92.5 -144.5t-62 -136.5t-22.5 -106.5q0 -57 24.5 -103.5
t75.5 -68.5q10 -2 12 -4.5t-2.5 -5t-14 -3.5t-22.5 2q-22 4 -52.5 14.5t-58.5 31t-47.5 52t-19.5 77.5q0 45 23.5 115t65.5 149t100 158.5t127 143t146 103.5t158 40q43 0 76 -16t57 -41.5t40.5 -58t26.5 -65t14 -62.5t4 -51q0 -66 -24 -142.5t-65 -154.5t-96.5 -154.5
t-118.5 -143.5q18 -86 43 -152t53 -114t56 -77t52 -40q8 -4 8 -6t-6 -2.5t-17.5 1.5t-24.5 7q-20 7 -51.5 27t-67 55.5t-71 88.5t-63.5 125q-87 -77 -173 -123.5t-160 -46.5q-46 0 -87 18.5t-72 51.5t-49 78t-18 98q0 21 17.5 25t38.5 -2.5t38.5 -19.5t17.5 -27
q0 -18 4.5 -48t17.5 -58.5t37 -49.5t62 -21q28 0 62.5 17.5t72.5 48.5t78 74t80 94q-12 52 -19 112t-7 129z" />
    <glyph glyph-name="R" unicode="R" horiz-adv-x="679" 
d="M-26 900q24 14 69.5 34.5t103.5 42.5t125 44t133 39.5t127.5 28.5t109.5 11q66 0 110.5 -23.5t72 -59.5t39 -80t11.5 -85q0 -34 -27.5 -74.5t-72.5 -81t-102 -79t-115.5 -68t-114 -48.5t-97.5 -21q17 -52 41 -114t55 -124.5t69 -121.5t83.5 -104.5t98 -73t112.5 -27.5
q45 0 75 2t53 8t44 18t47 32q14 11 19 11t4 -6.5t-7.5 -16.5t-15.5 -20q-16 -16 -41 -34.5t-57.5 -34t-71.5 -26t-84 -10.5q-101 0 -177 46.5t-132.5 127.5t-95.5 191t-66 238q-13 -30 -30 -68t-34 -76.5t-31.5 -74t-21.5 -61.5t-4 -38.5t20 -5.5q16 7 19.5 -1t-3 -23.5
t-23 -34.5t-40.5 -34q-9 -6 -24 -11.5t-28.5 -7t-23.5 3t-10 17.5q0 36 21.5 101.5t54.5 146.5t72 169.5t74.5 171.5t62.5 152t36 110q4 20 20 17t33.5 -17.5t30.5 -34.5t10 -34q-11 -55 -49.5 -128t-89.5 -146q53 11 107.5 39t104.5 65.5t94 80.5t76.5 84t51.5 76.5
t19 58.5q0 12 -7.5 23t-27 19.5t-53.5 14t-86 5.5q-32 0 -78 -9t-99 -24.5t-108.5 -35t-105.5 -40t-90.5 -41t-62.5 -36.5q-8 -6 -23 -4.5t-31 8t-31 17t-23.5 22t-8.5 23t15 20.5z" />
    <glyph glyph-name="S" unicode="S" horiz-adv-x="660" 
d="M43 429q10 8 13.5 -6t3.5 -35q0 -75 14.5 -135.5t39.5 -103t59.5 -66t75.5 -23.5q35 0 54.5 23.5t29.5 58.5t12 76t2 76q0 43 -10 97t-25 114t-32 123.5t-32 124.5t-25 117t-10 101q0 28 15.5 57t42 51.5t62.5 37t77 14.5q77 0 137 -20t106 -52t78 -73t52 -82.5t29 -80
t9 -66.5q0 -42 -13.5 -75t-36 -56t-51.5 -35t-60 -12q-51 0 -91 30t-64 77t-29.5 104t11.5 111q7 23 28.5 22t43 -14.5t36 -34t9.5 -38.5q-9 -33 -16.5 -66.5t-9 -60t4.5 -43.5t25 -17q28 0 50 15.5t37.5 38.5t23.5 49t8 48q0 49 -20 100.5t-57.5 93.5t-90 68.5t-118.5 26.5
q-47 0 -72.5 -22.5t-25.5 -73.5q0 -84 21.5 -169t47 -176t47 -190t21.5 -210q0 -57 -24.5 -103t-59.5 -78t-74 -49.5t-68 -17.5q-64 0 -109 32t-73 79t-41 102t-13 100q0 42 4 72t21 44z" />
    <glyph glyph-name="T" unicode="T" horiz-adv-x="500" 
d="M-139 747q95 56 199.5 99t211.5 75.5t214 54.5t206.5 36t188.5 21t160.5 8.5t122.5 -1t75 -7.5q23 -5 39.5 -24t24.5 -40t6 -36.5t-17 -13.5q-98 15 -209.5 17t-232.5 -10t-249.5 -38t-260.5 -67q23 -11 41.5 -29t18.5 -34q0 -19 -12.5 -59t-32 -93t-41.5 -115.5
t-41.5 -126t-32 -123.5t-12.5 -109q0 -14 4.5 -13.5t11.5 6.5t16.5 13t19.5 7q8 0 8 -12.5t-5 -31t-15 -40t-22.5 -40t-26.5 -31t-28 -12.5q-12 0 -26.5 9.5t-26.5 26t-20 38.5t-8 48q0 40 9 94.5t22.5 116t31 127t34 129t30.5 121.5t22 105q-103 -35 -204 -80t-201 -100
q-20 -10 -30 4t-9 38t12 50.5t34 41.5z" />
    <glyph glyph-name="U" unicode="U" horiz-adv-x="833" 
d="M-230 800q21 15 57 35.5t81 42t96.5 42t105 37t106 26.5t99.5 10q65 0 105 -21.5t61.5 -53t28.5 -67.5t7 -66q0 -37 -18.5 -85t-48.5 -102t-68 -110.5t-76.5 -110t-74.5 -101t-61.5 -83.5t-37.5 -56.5t-3 -20.5q35 0 90.5 32t123 86.5t141.5 127.5t146 155.5t137.5 170
t115.5 170.5q10 20 24 18t26 -15.5t18.5 -32.5t1.5 -34q-13 -32 -40 -73t-60 -92.5t-67.5 -113t-63 -134.5t-47 -157.5t-19.5 -180.5q0 -48 -44 -25q-19 10 -36 33.5t-17 54.5q0 17 1.5 42t7 59.5t16 79.5t27.5 102q-30 -35 -67 -78t-78.5 -87.5t-84 -87t-82.5 -75
t-75.5 -52.5t-61.5 -20q-18 0 -39.5 8.5t-40 26.5t-30.5 45t-12 64q0 17 17 50.5t44.5 78t63 96.5t72.5 107.5t72.5 111.5t63 107.5t44.5 95t17 75.5q0 68 -107 68q-30 0 -75 -11t-96 -28.5t-104.5 -40t-100 -45t-82.5 -43t-53 -34.5q-17 -15 -31 -7.5t-21.5 24.5t-6.5 35.5
t13 26.5z" />
    <glyph glyph-name="V" unicode="V" horiz-adv-x="613" 
d="M-20 828q80 42 163 107.5t164 134.5q18 15 36 0t31 -44.5t16.5 -65t-8.5 -60.5q-11 -22 -28.5 -71t-35.5 -130t-34.5 -196t-23.5 -269q32 81 78 163.5t102.5 162.5t121 155.5t133 142t139.5 122t140.5 95.5t134.5 62t123 22q25 0 48 -11.5t37 -25t16.5 -25t-11.5 -11.5
q-50 0 -115.5 -21.5t-140.5 -62t-155.5 -98.5t-160.5 -131.5t-156 -160t-141.5 -184.5t-116.5 -205.5t-82 -222.5q-8 -30 -27.5 -31.5t-39.5 13.5t-36 38.5t-17 43.5q-1 18 0 66t5.5 114.5t12 146t19 161t27.5 159.5t38 141q-27 -23 -68.5 -41.5t-109.5 -38.5
q-26 -8 -49.5 -3t-37 15.5t-13 23t21.5 20.5z" />
    <glyph glyph-name="W" unicode="W" horiz-adv-x="813" 
d="M172 1046q9 16 34.5 24t50 6.5t40.5 -12t6 -30.5q-38 -76 -70 -164.5t-57.5 -177t-43.5 -170.5t-26.5 -145t-7.5 -101t14 -38q32 0 65 27t66 73t65 106t61.5 125.5t55.5 132.5t47 126q6 18 21 13t29 -22.5t22.5 -41.5t1.5 -42q-52 -143 -69 -262t-12.5 -204.5t23 -133
t38.5 -47.5q25 0 45.5 36.5t37 93t28 125t19.5 132t12 114t4 72.5q0 24 15 42t33.5 26t35.5 5t20 -22q3 -17 2.5 -56.5t-5.5 -92t-14 -114t-23 -123.5t-32.5 -119t-43 -101t-54 -70.5t-65.5 -26.5q-29 0 -52.5 18.5t-42.5 49.5t-33 72.5t-23 87t-13.5 93t-4.5 90.5
q-25 -55 -59.5 -106.5t-71 -91.5t-71 -64t-58.5 -24q-18 0 -37.5 11t-35.5 29t-26.5 39.5t-10.5 42.5q0 69 8.5 147t23 157.5t32.5 155.5t36.5 141t37 114t32.5 75z" />
    <glyph glyph-name="X" unicode="X" horiz-adv-x="889" 
d="M65 620q7 8 22.5 -3t29.5 -30.5t22 -42.5t0 -39q-9 -19 -23 -47.5t-29.5 -62t-31 -70t-28 -70t-20 -62.5t-7.5 -48q0 -22 11 -36.5t29 -14.5q15 0 47 18t76.5 49.5t98.5 74.5t114 93q-2 14 -2 29.5v31.5q0 110 11.5 220t26.5 206.5t28.5 171.5t17.5 114q1 18 11 23.5
t23.5 2t29 -13.5t28 -24.5t20.5 -30.5t7 -31q-1 -14 -6 -48t-11.5 -81.5t-15 -105.5t-16.5 -119.5t-15.5 -123t-11.5 -115.5q82 71 162.5 143.5t148.5 136t119 113t74 75.5q12 14 24.5 13t22.5 -11t17 -26.5t10.5 -34.5t1.5 -34.5t-10 -25.5q-7 -8 -34 -34t-68.5 -64
t-95 -86t-115 -101t-128.5 -108.5t-134 -108.5q4 -69 21 -137t40 -126t49 -101t48 -60q19 -15 19.5 -22t-10 -7t-29 8t-36.5 23q-12 10 -38.5 34.5t-57.5 66.5t-60.5 102t-47.5 141q-59 -44 -114.5 -81t-104 -64t-88 -42.5t-67.5 -15.5q-18 0 -35 11t-31 29.5t-22.5 42
t-8.5 48.5q0 61 12.5 134t32.5 142t45.5 126t51.5 86z" />
    <glyph glyph-name="Y" unicode="Y" horiz-adv-x="642" 
d="M-61 937q38 31 90.5 44t100.5 13q24 2 46 -15t38 -39.5t22 -45.5t-1 -33q-20 -28 -46.5 -61.5t-54 -70t-54.5 -73.5t-47.5 -70.5t-33.5 -61t-13 -45.5q0 -14 6 -21.5t21 -7.5t48 18.5t77 49.5t96 71.5t106 84.5t107 87.5t98.5 81.5t81 66.5t54.5 42.5q13 9 24.5 5.5
t20.5 -14.5t15 -27.5t8 -34.5t0 -34.5t-10 -26.5q-71 -96 -135.5 -194.5t-118.5 -191t-95 -173.5t-64 -141.5t-25.5 -95.5t19.5 -35q40 0 72 7.5t58 19t47.5 26t41.5 29.5q10 7 23.5 13t21.5 6t6.5 -7.5t-22.5 -28.5q-21 -20 -48.5 -43t-57.5 -42.5t-60 -32.5t-57 -13
q-28 0 -56.5 6.5t-51 20.5t-37 36t-14.5 53q0 32 24.5 98t67 152t100 186t124.5 199q-66 -64 -129 -119t-118.5 -95t-102.5 -62.5t-81 -22.5q-32 0 -62 11t-53.5 29.5t-38 42.5t-14.5 49q0 31 17 72t41.5 84.5t53 85.5t51.5 75t36.5 53.5t7.5 20.5q-24 0 -42 -11t-46 -25
q-14 -7 -34.5 0t-36 19.5t-21.5 28.5t9 27z" />
    <glyph glyph-name="Z" unicode="Z" horiz-adv-x="909" 
d="M109 477q13 10 22 7t14 -14.5t6 -28t-1.5 -33t-9.5 -30t-17 -18.5q-33 -16 -74.5 -12.5t-79 23t-63 52.5t-25.5 77q0 29 30.5 66t82 78t120.5 84t146 83.5t158 76t156.5 62.5t141.5 42.5t114 15.5q43 0 72.5 -24.5t44.5 -58.5t16.5 -70t-10.5 -58q-13 -25 -50 -75
t-92.5 -115.5t-127 -140t-154 -149t-172.5 -143t-184 -121.5q85 -2 164.5 13t145.5 36.5t115 45t75 39.5q18 11 43 0t44.5 -30.5t27 -41t-9.5 -31.5q-25 -15 -74 -37.5t-110 -43t-126.5 -35.5t-123.5 -15q-78 0 -134 11.5t-84 28.5q-16 9 -29 23t-19 28.5t-4 28t15 23.5
q86 65 178.5 147.5t181.5 169.5t168 172t139 154.5t95 117t35 60.5q0 9 -40.5 2t-106 -26.5t-150 -49t-172 -66t-172 -77t-150 -82t-106 -82t-40.5 -75.5q0 -23 18.5 -28.5t44 0t52.5 18t45 26.5z" />
    <glyph glyph-name="a" unicode="a" 
d="M92 524q21 33 52.5 57.5t67.5 41t73 25t69 8.5q27 0 52.5 -12.5t45 -34.5t31 -52t11.5 -65q0 -64 -13 -118.5t-28 -104t-28 -95.5t-13 -92q0 -14 -17.5 -16t-38.5 8.5t-38.5 32.5t-17.5 55q0 3 0.5 7.5t1.5 9.5q-27 -29 -61 -48t-79 -19q-35 0 -63 14.5t-47.5 35
t-29.5 43t-10 39.5q0 32 28 58.5t76 45.5t112 27.5t135 4.5q12 41 21.5 80.5t12.5 70.5t-2 50t-23 19q-33 0 -80 -35t-92 -101q-12 -18 -34 -16t-41.5 14t-30.5 30t-2 32zM192 166q36 0 78 39.5t74 111.5q1 4 2 7.5t3 8.5q-47 -4 -85 -20.5t-64.5 -37.5t-41 -42t-14.5 -33
q0 -14 12.5 -24t35.5 -10z" />
    <glyph glyph-name="b" unicode="b" horiz-adv-x="572" 
d="M146 900q0 21 10 29t25 5t32 -15t32 -30t25 -41t10 -48q0 -17 -6 -47.5t-16 -68t-22.5 -79.5t-24.5 -82.5t-23 -76t-18 -60.5q20 22 43.5 43t48 36.5t49.5 25t49 9.5q44 0 81 -21.5t63.5 -50t41 -57t14.5 -43.5q0 -56 -27 -105.5t-75 -87t-115 -59.5t-147 -22
q-24 0 -54 3t-55.5 15.5t-43 37t-17.5 68.5q0 50 9 108.5t22 121t29 127.5t29 128.5t22 124t9 112.5zM178 100q17 0 41 13.5t51 36t53.5 52t47.5 61t34 63t13 58.5q0 32 -19 46t-41 14q-28 0 -67.5 -23t-75.5 -62t-61.5 -90t-25.5 -107q0 -26 10 -44t40 -18z" />
    <glyph glyph-name="c" unicode="c" horiz-adv-x="544" 
d="M298 490q-16 0 -38.5 -28t-46.5 -70.5t-45 -91.5t-33 -91.5t-11.5 -70.5t20.5 -28q31 0 66.5 10.5t71.5 26.5t70.5 36.5t64 39.5t51 35.5t32.5 25.5q10 9 20 14.5t15.5 5.5t6 -6.5t-7.5 -21.5q-9 -16 -27.5 -41t-44.5 -53.5t-58 -56.5t-66.5 -51t-69.5 -37.5t-68 -14.5
q-38 0 -73 17t-62 43t-43 57.5t-14 60.5q4 72 32.5 131t67.5 104.5t83.5 77.5t80.5 51q22 11 47.5 16t48.5 4.5t40 -6.5t22 -18q11 -24 15 -49t-1 -67q-2 -22 -22 -37t-43 -19.5t-41.5 2.5t-17.5 30q1 27 -6 48.5t-16 21.5z" />
    <glyph glyph-name="d" unicode="d" horiz-adv-x="604" 
d="M390 624q8 0 19 -4.5t22 -11.5t21.5 -16.5t17.5 -18.5q21 48 39 94t32 88.5t23.5 79t13.5 65.5q3 23 26 39.5t49.5 23t47 2t19.5 -22.5q-4 -46 -25.5 -112t-54.5 -143q-29 -81 -54.5 -149t-46 -135t-33.5 -140t-16 -163q0 -14 -10.5 -16t-23.5 3.5t-25.5 16.5t-16.5 24
q-8 23 -13.5 54.5t-7.5 69.5q-33 -46 -65.5 -84.5t-63 -66t-58 -43t-50.5 -15.5q-29 0 -55.5 15t-46.5 38t-32 50.5t-12 53.5q0 44 18 92.5t48 95.5t69 90t81.5 75.5t85 51.5t78.5 19zM125 103q33 -1 73.5 35t84 96t86.5 136.5t81 157.5q-61 -15 -115.5 -52t-99 -84
t-76.5 -98t-48 -93t-13.5 -70t27.5 -28z" />
    <glyph glyph-name="e" unicode="e" horiz-adv-x="490" 
d="M30 200q0 88 25.5 162t64.5 126.5t86 82t90 29.5q33 0 66 -17t58.5 -42.5t41.5 -55.5t16 -57q0 -31 -22 -66.5t-62 -66.5t-95 -52.5t-122 -24.5q-1 -9 -1 -18.5v-19.5q0 -59 23.5 -89.5t58.5 -30.5q62 0 113.5 30.5t86.5 75.5q12 15 16.5 13.5t3.5 -12t-6.5 -25.5
t-13.5 -26q-12 -17 -33.5 -36.5t-49 -36t-59.5 -28t-66 -11.5q-49 0 -89.5 18t-69.5 46.5t-45 63.5t-16 68zM358 522q-12 7 -37.5 -7.5t-53 -48t-52 -86.5t-34.5 -124q27 11 53.5 33.5t49 50.5t40 58t28 56t12.5 44.5t-6 23.5z" />
    <glyph glyph-name="f" unicode="f" horiz-adv-x="482" 
d="M350 605q48 37 91.5 82t77.5 91.5t57.5 90t32 77.5t0.5 54.5t-36 20.5q-29 0 -68 -36.5t-81.5 -98.5t-84.5 -143t-75.5 -170t-55.5 -180t-25 -173q48 -20 95.5 -51t85 -74.5t60.5 -101t23 -130.5q0 -24 -10.5 -50.5t-34.5 -49t-62.5 -37.5t-93.5 -15q-37 0 -70.5 16.5
t-59.5 60.5t-41.5 122t-15.5 201q0 29 1.5 57.5t3.5 57.5q-23 6 -42.5 9t-34 6t-23 7t-8.5 11q0 8 31 8t80 -11q12 106 40 206.5t66.5 189.5t85 164.5t96 130t99 85.5t94.5 33q29 1 58 -9.5t52.5 -32.5t38.5 -55.5t15 -78.5q0 -38 -13.5 -77.5t-36 -78t-50.5 -73.5
t-56.5 -63.5t-55.5 -49.5t-46 -30q-27 -9 -52 -0.5t-41.5 24.5t-21 34.5t10.5 29.5zM263 -233q15 -2 25.5 6t17 21t9.5 28.5t3 28.5q0 69 -11 121t-29.5 91t-43.5 66.5t-52 46.5q0 -119 7.5 -197t19.5 -124.5t26.5 -66.5t27.5 -21z" />
    <glyph glyph-name="g" unicode="g" horiz-adv-x="576" 
d="M464 620q0 24 18.5 26t41 -10t41 -36t18.5 -53q0 -19 -5.5 -54.5t-16.5 -83.5t-27.5 -105.5t-37.5 -119.5t-46.5 -125t-55.5 -122q97 -9 190 -32.5t166 -59.5t117.5 -83.5t44.5 -105.5q0 -71 -31.5 -116t-78 -70.5t-101.5 -35.5t-101 -10q-21 0 -37.5 3t-24.5 7t-7 7
t15 3q10 0 37.5 1t63.5 6t75 17t71.5 34t53.5 56t21 84q0 43 -46.5 78.5t-121 61.5t-168.5 42.5t-189 22.5q-29 -48 -61.5 -88.5t-68 -70t-73.5 -46t-78 -16.5q-44 0 -78.5 12.5t-58.5 32t-36.5 44t-12.5 47.5q0 46 31 80.5t83.5 57t122.5 33.5t148 11q20 39 39 84.5
t38 98.5q-32 -32 -63 -50t-59 -18q-34 0 -66 10.5t-57 29.5t-40 45t-15 56q0 81 29.5 151.5t73.5 123t95.5 83t95.5 30.5q31 0 62 -14t55 -34q4 20 7.5 39.5t7.5 40.5zM209 120q25 3 50.5 20.5t49 44.5t45.5 60.5t41 68.5q11 42 22 87.5t22 94.5q-5 17 -18 27.5t-35 10.5
q-32 0 -66 -31.5t-64.5 -79t-53.5 -102t-32 -100.5t-1 -75.5t40 -25.5zM-89 -250q0 -38 22 -57t55 -19q48 0 104 41.5t116 134.5q-62 -1 -116 -7.5t-94.5 -19t-63.5 -31t-23 -42.5z" />
    <glyph glyph-name="h" unicode="h" horiz-adv-x="618" 
d="M242 827q0 12 11.5 23t29 19.5t37.5 13.5t37.5 5t29 -6.5t11.5 -20.5q0 -23 -18 -77t-46 -125.5t-61 -153.5t-64 -160q25 31 53.5 59.5t57 49.5t55 33.5t47.5 12.5q40 0 69.5 -17t48 -43.5t26 -57.5t4.5 -58q-1 -39 -8 -78.5t-15 -78.5t-14.5 -76.5t-6.5 -72.5
q0 -22 -19.5 -18.5t-43.5 22t-43.5 47.5t-19.5 59q0 19 7 48t15 62t16 65.5t10 59t-4 43t-26 16.5q-44 0 -86 -24t-78.5 -61.5t-65 -85t-46.5 -93.5q-11 -33 -16.5 -58.5t-5.5 -42.5t-11.5 -18.5t-25.5 8t-25.5 29t-11.5 44.5q0 12 8.5 46.5t22 83.5t31.5 108.5t36 121
t36 120t31.5 106.5t22 80t8.5 41z" />
    <glyph glyph-name="i" unicode="i" horiz-adv-x="227" 
d="M61 435q2 23 22 23t43 -12.5t42 -33.5t19 -39q0 -32 -7 -65t-16 -68t-16 -72t-7 -78q0 -21 -12.5 -21.5t-27.5 9.5t-28.5 26.5t-15.5 28.5q-8 54 -2 127.5t6 174.5zM150 747q4 15 23 11.5t40 -16.5t38 -32t17 -36q0 -14 -3.5 -26.5t-8 -26.5t-8 -32.5t-3.5 -44.5
q0 -18 -15 -18.5t-32.5 11.5t-32.5 33t-15 44v133z" />
    <glyph glyph-name="j" unicode="j" horiz-adv-x="304" 
d="M-100 -49q15 24 32.5 18.5t31 -25t18.5 -46.5t-5 -46q-17 -51 -28 -97t-15.5 -80.5t-1.5 -54.5t15 -20q14 0 40.5 48.5t54 147.5t52.5 249.5t36 354.5q1 16 20.5 17.5t42.5 -7t42 -25.5t19 -37q0 -81 -13 -172t-35.5 -181t-52.5 -171.5t-63 -144.5t-67 -100t-65 -37
q-26 0 -48.5 9.5t-39.5 27.5t-27 44t-10 59q0 72 15 140.5t52 128.5zM232 757q4 15 23 11.5t40 -16.5t38 -32t17 -36q0 -14 -7 -35t-16.5 -45t-18.5 -50t-13 -51q-2 -11 -14.5 -8.5t-27 13t-26 26t-11.5 29.5q0 21 2.5 40t5.5 41t5.5 49t2.5 64z" />
    <glyph glyph-name="k" unicode="k" horiz-adv-x="438" 
d="M757 1065q19 15 40.5 7t36.5 -25t19.5 -37t-8.5 -30q-77 -58 -153 -125t-145 -137.5t-128.5 -142.5t-103 -141t-68.5 -133t-25 -118q0 -27 15.5 -50t40 -39.5t54 -23.5t58.5 -1q22 5 26 -2t-24 -18q-87 -36 -151 -19.5t-106 79.5q-34 -64 -61.5 -82t-27.5 9q0 34 7.5 95
t18 135.5t23.5 156t23.5 157.5t18 140t7.5 103q-1 21 7 28.5t21 4.5t28.5 -13.5t28.5 -24.5t22 -30t9 -28q-2 -33 -9.5 -78.5t-19 -99t-24.5 -113.5t-25 -124q27 59 65.5 125t85 133t99.5 133t107.5 126.5t110 112t107.5 90.5z" />
    <glyph glyph-name="l" unicode="l" horiz-adv-x="238" 
d="M192 843q0 11 10.5 23.5t26.5 23.5t34 19t34 9t26.5 -5.5t10.5 -23.5q0 -30 -10 -78.5t-26 -107.5t-36 -124.5t-39.5 -129.5t-36.5 -122t-27.5 -102t-12 -70t9.5 -26q14 0 22 2.5t12.5 5.5t7.5 5.5t8 2.5q12 0 11 -14.5t-11.5 -32.5t-27.5 -32.5t-36 -14.5
q-13 0 -32 10.5t-36 27t-29.5 37.5t-12.5 43q0 41 12 94.5t29.5 113.5t38.5 123.5t38.5 124.5t29.5 117t12 101z" />
    <glyph glyph-name="m" unicode="m" horiz-adv-x="922" 
d="M51 505q3 18 14.5 23.5t26.5 2t31 -14.5t29 -26t20 -32t4 -34q-5 -29 -8.5 -61t-6 -62t-3 -55t-0.5 -38q25 72 51 128.5t49 98.5t42 69.5t30 41.5q11 16 33.5 11t44.5 -21t37.5 -38t14.5 -40q-3 -39 -4 -84t1.5 -88.5t7.5 -83.5t13 -68q28 60 66.5 129t78 134t75 119.5
t56.5 84.5q13 19 34 17t40.5 -17.5t33 -40t10.5 -50.5q-7 -59 -12.5 -116.5t-7 -110t2 -99.5t15.5 -84q11 -35 -4.5 -39.5t-41.5 25.5q-15 20 -30.5 51t-28.5 67.5t-21 77t-8 80.5q-32 -38 -84.5 -111.5t-111.5 -170.5q-14 -32 -45.5 -29t-66.5 41q-15 16 -30 43.5t-27.5 60
t-22 67t-12.5 64.5q-32 -55 -56 -109t-41 -98q-19 -51 -33 -98q-3 -14 -23.5 -16.5t-44.5 6.5t-45.5 28.5t-28.5 49.5q-8 37 -15.5 86t-10.5 104.5t-0.5 113t13.5 111.5z" />
    <glyph glyph-name="n" unicode="n" horiz-adv-x="594" 
d="M82 548q1 14 12.5 28t28.5 25t36 17.5t35 6.5t27 -7.5t11 -25.5q0 -26 -9.5 -63t-24.5 -81q72 76 131.5 109t98.5 33q27 0 51 -17.5t42 -44.5t28.5 -58.5t10.5 -59.5q0 -33 -16.5 -74t-38 -83.5t-44 -83.5t-34.5 -72.5t-8.5 -51t33.5 -19.5q23 0 44.5 6t39 13t30.5 13
t20 6q14 0 4.5 -16t-32 -34.5t-52 -34.5t-54.5 -16q-38 0 -67 14.5t-49.5 36.5t-31 47.5t-10.5 47.5q0 30 14.5 70.5t34.5 83.5t42 85.5t37 75.5t18.5 53.5t-12.5 20.5q-15 0 -50 -15.5t-77.5 -44.5t-88 -71.5t-82.5 -97.5q-23 -57 -39.5 -101.5t-16.5 -59.5q-5 -23 -16 -24
t-22 10.5t-20 30.5t-9 37q0 33 11.5 81.5t26 102.5t26 107t11.5 95z" />
    <glyph glyph-name="o" unicode="o" horiz-adv-x="516" 
d="M308 586q15 10 35 11t39 -4.5t35 -15t24.5 -20t7 -21t-18.5 -16.5q-14 -7 -29.5 -16.5t-31.5 -23.5q4 -3 8 -5.5t7 -4.5q4 -3 6 -5q52 -66 73.5 -125t19 -108.5t-26 -89t-61 -67.5t-86 -42.5t-101.5 -14.5q-42 0 -75 20t-56 51t-35 68t-12 71q0 35 16 73t42 74t57.5 70
t62.5 62t57.5 48.5t42.5 30.5zM216 76q44 0 71 20t41 52t18 72.5t2 81.5t-7.5 79t-9.5 65q-34 -33 -66.5 -73t-58.5 -81t-42 -80t-17.5 -69t14.5 -48.5t55 -18.5z" />
    <glyph glyph-name="p" unicode="p" horiz-adv-x="582" 
d="M78 498q1 13 12.5 26t28 23t35.5 16.5t35 6.5t26.5 -7.5t10.5 -24.5q0 -27 -8.5 -72t-21.5 -101q22 39 51 78.5t62.5 71.5t70.5 52t76 20q41 0 72.5 -19t52 -46t30 -56.5t5.5 -51.5q0 -30 -18.5 -72t-52 -85.5t-78.5 -83.5t-98 -66.5t-111.5 -34t-118.5 13.5
q-3 1 -5.5 1.5t-5.5 1.5q-4 -11 -7.5 -21t-6.5 -20q-11 -42 -20.5 -82t-16.5 -75t-11 -63.5t-4 -47.5q0 -21 -13 -24.5t-28.5 4t-28.5 22.5t-13 33q0 19 7.5 66.5t18.5 111t23.5 136t23.5 142t18.5 129.5t7.5 98zM445 514q-24 0 -51 -17.5t-54.5 -46.5t-54.5 -67.5
t-52.5 -81t-47.5 -86.5t-39 -83q61 -13 112.5 10t91 65.5t66.5 95.5t40 100t10.5 79t-21.5 32z" />
    <glyph glyph-name="q" unicode="q" horiz-adv-x="602" 
d="M600 488q0 -40 -14.5 -87.5t-37.5 -99.5t-51.5 -107t-56.5 -109.5t-52 -106.5t-38 -98q42 49 72.5 80t55 51t45.5 32.5t45 24.5q16 8 20.5 4t1.5 -13.5t-12 -22t-20 -20.5q-27 -20 -56.5 -52t-57.5 -69.5t-52.5 -75.5t-41.5 -69q-8 -15 -34 -27.5t-54.5 -17.5t-51 1
t-22.5 30q0 28 14 76t34.5 101.5t42 105.5t36.5 89q-29 -43 -62 -61t-66.5 -19t-64 12.5t-54.5 33.5t-38 44.5t-14 45.5q0 73 28 141.5t74.5 121.5t106.5 85t125 32q41 0 67 -15.5t41 -38.5q12 15 35.5 21.5t47 6t41.5 -8t18 -21.5zM384 482q-37 0 -73 -28.5t-66 -70.5
t-52 -92t-30 -92t0 -70.5t37 -28.5q54 0 103 46t84 129q23 57 33 103q4 19 5.5 38t-2 33.5t-13 23.5t-26.5 9z" />
    <glyph glyph-name="r" unicode="r" horiz-adv-x="440" 
d="M56 500q0 27 22.5 48t49.5 31t49.5 5t22.5 -32q0 -24 -2 -48t-4 -49q64 100 114.5 146.5t81.5 46.5q32 0 52.5 -22t28.5 -56t3.5 -74t-22.5 -76q-9 -21 -34 -30t-50 -8.5t-43 9t-13 21.5q7 21 16 43.5t15.5 41.5t8.5 31t-4 12t-28.5 -21t-51 -65t-57.5 -112.5t-49 -163.5
q-2 -21 -2 -43v-45q0 -22 -14 -25.5t-31 4t-31 24t-14 35.5q0 66 -7 156.5t-7 215.5z" />
    <glyph glyph-name="s" unicode="s" horiz-adv-x="432" 
d="M73 314q16 15 41 11.5t45 -16t30 -29.5t-4 -29q-25 -22 -39.5 -52t-16.5 -57.5t8.5 -46.5t36.5 -19q22 0 41.5 14.5t34 37t22.5 49.5t8 53q0 35 -12 60t-30.5 44.5t-39.5 35.5t-39.5 34.5t-30.5 41t-12 54.5q0 47 32.5 83.5t90.5 53.5q42 13 64.5 10t22.5 -15
q0 -5 -18.5 -10t-40.5 -14t-40.5 -26t-18.5 -46q0 -22 16 -39t39.5 -34t51.5 -35t51.5 -40.5t39.5 -51.5t16 -68q0 -58 -26.5 -103.5t-64 -77t-79 -48.5t-72.5 -17q-29 0 -59.5 13t-55.5 32.5t-40.5 42t-15.5 42.5q0 60 16 96.5t48 65.5z" />
    <glyph glyph-name="t" unicode="t" horiz-adv-x="348" 
d="M81 745h56.5t53.5 1q4 26 6.5 49.5t2.5 46.5q0 11 11 22.5t27.5 20.5t35.5 15.5t35.5 7t27.5 -5t11 -20.5q0 -28 -4 -60.5t-12 -69.5q97 6 175 14t142 16t117.5 13.5t102.5 5.5q16 0 32.5 -11t26.5 -24t8.5 -24t-21.5 -11q-63 0 -141.5 -9.5t-160.5 -23t-162 -28
t-146 -25.5q-19 -68 -41.5 -139.5t-45 -139.5t-41.5 -127.5t-29.5 -104.5t-10.5 -71t16 -26q24 0 53.5 21t57.5 50t50.5 59.5t33.5 50.5q11 19 15 17t2 -15.5t-9 -35t-18 -40.5t-29 -48t-42 -56t-52.5 -46.5t-60.5 -19.5q-23 0 -45.5 11t-40.5 29t-29 40.5t-11 45.5
q0 52 14 115t35 131.5t44.5 140.5t42.5 141q-42 0 -66.5 18.5t-34 40t-4.5 40t22 18.5z" />
    <glyph glyph-name="u" unicode="u" horiz-adv-x="510" 
d="M90 616q4 23 25 25t45 -10t43 -32.5t19 -42.5q0 -32 -9 -76.5t-21 -92t-25 -94.5t-21 -84t-8 -60t12 -23q14 0 37 15.5t49 42t52 62.5t47 77t34 85.5t13 87.5q0 25 18.5 28t40.5 -10t40.5 -38t18.5 -54q0 -33 -13 -75t-24 -94t-13 -115t20 -138q5 -16 -0.5 -21t-17 -1.5
t-25.5 14t-27 26.5q-10 12 -21 30.5t-20.5 42.5t-15.5 51.5t-5 57.5q-17 -32 -38.5 -62.5t-45 -54.5t-48.5 -38.5t-50 -14.5q-17 -1 -40 11t-44 32.5t-36 47t-16 55.5q-2 56 9 111t24.5 109t25 109t11.5 111z" />
    <glyph glyph-name="v" unicode="v" horiz-adv-x="460" 
d="M26 374q0 21 20.5 41t45.5 30t45.5 6t20.5 -31q0 -44 6 -89.5t15 -85t18.5 -70t17.5 -43.5q13 68 42 134t63.5 123t68.5 101t57 70q13 13 19 10t7 -13.5t-2.5 -24t-9.5 -22.5q-27 -44 -55.5 -106.5t-52.5 -130t-39.5 -134t-17.5 -117.5q-1 -19 -21 -21t-50 12.5
t-64.5 44.5t-64.5 75.5t-49.5 106t-19.5 134.5z" />
    <glyph glyph-name="w" unicode="w" horiz-adv-x="622" 
d="M220 690q13 8 32 1t34.5 -22t21.5 -34.5t-7 -35.5q-19 -22 -42.5 -55.5t-48 -73t-48 -82t-42 -82.5t-30 -74.5t-11.5 -57.5q0 -18 7 -30t23 -12q29 0 56 23t50.5 60t44.5 82t38.5 90t32 84t25.5 63q8 17 25 13t33 -20t25.5 -39.5t3.5 -44.5q-12 -38 -22 -87.5t-17 -102
t-10 -102.5t-0.5 -89.5t11.5 -63.5t26 -24q12 0 28.5 35t30.5 93t24 133.5t10 156.5q0 41 -2.5 79t-6 69.5t-8.5 55t-10 35.5q-5 11 -2 15.5t10 2.5t14.5 -9t11.5 -18q10 -28 19.5 -57t16.5 -63t11 -75t4 -93q0 -24 -1 -65.5t-5.5 -90.5t-13.5 -99.5t-24.5 -92t-38.5 -67.5
t-56 -26q-32 0 -58.5 29t-45 74.5t-28.5 101t-10 109.5q-38 -70 -83.5 -109.5t-84.5 -39.5q-25 0 -49 16.5t-42.5 41.5t-30 54t-11.5 54q0 56 19 121t50.5 128.5t70.5 120t80 96.5z" />
    <glyph glyph-name="x" unicode="x" horiz-adv-x="472" 
d="M20 59q15 33 37 71t51 78q-35 42 -56.5 88t-21.5 94q0 22 19.5 41t42.5 29.5t42.5 8.5t19.5 -21q0 -36 8 -70.5t22 -67.5q43 55 91 108t94.5 99t89.5 83.5t78 60.5q16 10 22.5 10t5 -6.5t-9.5 -19t-21 -25.5q-27 -29 -62.5 -73t-74.5 -98t-79.5 -114.5t-77.5 -121.5
q45 -63 100 -109t100 -68q13 -5 14 -9t-5 -6.5t-17.5 -3.5t-23.5 1q-40 5 -99.5 34t-117.5 76q-44 -79 -70 -143q-10 -25 -30 -23.5t-38.5 17t-29.5 38.5t-3 42z" />
    <glyph glyph-name="y" unicode="y" horiz-adv-x="548" 
d="M-178 22q45 0 104 -4.5t120.5 -12t119.5 -16.5t102 -18q19 43 31.5 80t21.5 70.5t15.5 66t11.5 68.5q-17 -29 -39 -57t-47.5 -50t-53 -35.5t-55.5 -13.5q-18 0 -40 15.5t-41.5 39.5t-32.5 54t-13 59q0 72 18.5 135.5t44 113.5t51.5 84t40 46q18 15 37.5 7.5t34 -24.5
t21.5 -38.5t-1 -33.5q-5 -7 -17.5 -27.5t-29 -49.5t-34.5 -64.5t-33 -71.5t-24.5 -70.5t-9.5 -62.5q0 -18 8 -28.5t24 -10.5q21 0 47.5 21t55 55.5t56 78.5t51.5 89.5t42 89.5t26 78q4 19 21 17.5t35 -16.5t30 -38.5t8 -47.5q-6 -27 -17 -83t-30 -130.5t-48 -161t-72 -174.5
q109 -27 199 -63t154 -70q13 -7 23.5 -15.5t15.5 -14.5t2.5 -8t-15.5 6q-19 10 -55.5 27.5t-87 37.5t-113.5 40.5t-134 37.5q-31 -61 -74 -123t-97 -118.5t-118.5 -106t-139 -85.5t-158.5 -57t-177 -21q-99 0 -178 24.5t-134 65t-84.5 92.5t-29.5 108q0 66 28 115t76 84
t112.5 57t138 35t152.5 18t155 5zM-800 -280q0 -65 31.5 -114t84 -81.5t119 -49t137.5 -17.5q87 -2 164.5 18t144.5 55t123.5 82.5t103 101.5t82.5 112.5t62 114.5q-36 6 -94.5 14.5t-124.5 16t-132 12.5t-117 5q-149 0 -259 -21.5t-182 -58t-107.5 -86t-35.5 -104.5z" />
    <glyph glyph-name="z" unicode="z" horiz-adv-x="508" 
d="M100 500q16 4 47 11.5t66.5 15t71.5 12.5t63 5q29 0 53 -13t41.5 -30.5t27.5 -35t10 -25.5q0 -27 -22 -69t-55.5 -86.5t-73 -84.5t-73.5 -64q66 16 125 10.5t103 -28t70 -60.5t26 -86q0 -109 -38 -211.5t-104 -194t-155.5 -167.5t-192 -131t-214 -85.5t-221.5 -30.5
q-96 0 -164 15.5t-113 41.5t-70 59t-35.5 68.5t-8 70t11.5 62.5q6 24 19.5 46t25.5 33.5t18 9t-4 -26.5q-26 -73 -25 -133.5t37 -104t110.5 -67.5t193.5 -24q94 0 190 30t185 82t166.5 122.5t135.5 151.5t91 169t33 175q0 69 -33.5 104t-78.5 35q-46 0 -96 -14.5t-92 -28.5
q-21 -7 -44.5 2t-40.5 24t-23 32t8 26q9 6 37.5 27.5t65.5 52t78 66.5t75 71.5t56 67.5t22 53q0 17 -21.5 16.5t-52.5 -9.5t-64.5 -21.5t-58.5 -19.5q-16 -5 -37 6.5t-36.5 27.5t-22 31.5t6.5 18.5z" />
    </font>
</defs>
</svg>
